<mxfile host="app.diagrams.net" agent="Mozilla/5.0 (Windows NT 10.0; Win64; x64) AppleWebKit/537.36 (KHTML, like Gecko) Chrome/130.0.0.0 Safari/537.36" version="24.8.3">
  <diagram name="Page-1" id="86Rrf8rp5s_5QjAATYvA">
    <mxGraphModel dx="1420" dy="853" grid="0" gridSize="10" guides="1" tooltips="1" connect="1" arrows="1" fold="1" page="0" pageScale="1" pageWidth="850" pageHeight="1100" math="0" shadow="0">
      <root>
        <mxCell id="0" />
        <mxCell id="1" parent="0" />
        <mxCell id="ruvOZ1PuX7WifHgUErlT-1" value="" style="childLayout=tableLayout;recursiveResize=0;shadow=0;fillColor=none;" vertex="1" parent="1">
          <mxGeometry x="610" y="160" width="418" height="42" as="geometry" />
        </mxCell>
        <mxCell id="ruvOZ1PuX7WifHgUErlT-2" value="" style="shape=tableRow;horizontal=0;startSize=0;swimlaneHead=0;swimlaneBody=0;top=0;left=0;bottom=0;right=0;dropTarget=0;collapsible=0;recursiveResize=0;expand=0;fontStyle=0;fillColor=none;strokeColor=inherit;" vertex="1" parent="ruvOZ1PuX7WifHgUErlT-1">
          <mxGeometry width="418" height="42" as="geometry" />
        </mxCell>
        <mxCell id="ruvOZ1PuX7WifHgUErlT-3" value="" style="connectable=0;recursiveResize=0;strokeColor=inherit;fillColor=none;align=center;whiteSpace=wrap;html=1;" vertex="1" parent="ruvOZ1PuX7WifHgUErlT-2">
          <mxGeometry width="59" height="42" as="geometry">
            <mxRectangle width="59" height="42" as="alternateBounds" />
          </mxGeometry>
        </mxCell>
        <mxCell id="ruvOZ1PuX7WifHgUErlT-4" value="" style="connectable=0;recursiveResize=0;strokeColor=inherit;fillColor=none;align=center;whiteSpace=wrap;html=1;" vertex="1" parent="ruvOZ1PuX7WifHgUErlT-2">
          <mxGeometry x="59" width="61" height="42" as="geometry">
            <mxRectangle width="61" height="42" as="alternateBounds" />
          </mxGeometry>
        </mxCell>
        <mxCell id="ruvOZ1PuX7WifHgUErlT-5" value="" style="connectable=0;recursiveResize=0;strokeColor=inherit;fillColor=none;align=center;whiteSpace=wrap;html=1;" vertex="1" parent="ruvOZ1PuX7WifHgUErlT-2">
          <mxGeometry x="120" width="59" height="42" as="geometry">
            <mxRectangle width="59" height="42" as="alternateBounds" />
          </mxGeometry>
        </mxCell>
        <mxCell id="ruvOZ1PuX7WifHgUErlT-14" style="connectable=0;recursiveResize=0;strokeColor=inherit;fillColor=none;align=center;whiteSpace=wrap;html=1;" vertex="1" parent="ruvOZ1PuX7WifHgUErlT-2">
          <mxGeometry x="179" width="60" height="42" as="geometry">
            <mxRectangle width="60" height="42" as="alternateBounds" />
          </mxGeometry>
        </mxCell>
        <mxCell id="ruvOZ1PuX7WifHgUErlT-15" style="connectable=0;recursiveResize=0;strokeColor=inherit;fillColor=none;align=center;whiteSpace=wrap;html=1;" vertex="1" parent="ruvOZ1PuX7WifHgUErlT-2">
          <mxGeometry x="239" width="59" height="42" as="geometry">
            <mxRectangle width="59" height="42" as="alternateBounds" />
          </mxGeometry>
        </mxCell>
        <mxCell id="ruvOZ1PuX7WifHgUErlT-16" style="connectable=0;recursiveResize=0;strokeColor=inherit;fillColor=none;align=center;whiteSpace=wrap;html=1;" vertex="1" parent="ruvOZ1PuX7WifHgUErlT-2">
          <mxGeometry x="298" width="61" height="42" as="geometry">
            <mxRectangle width="61" height="42" as="alternateBounds" />
          </mxGeometry>
        </mxCell>
        <mxCell id="ruvOZ1PuX7WifHgUErlT-17" style="connectable=0;recursiveResize=0;strokeColor=inherit;fillColor=none;align=center;whiteSpace=wrap;html=1;" vertex="1" parent="ruvOZ1PuX7WifHgUErlT-2">
          <mxGeometry x="359" width="59" height="42" as="geometry">
            <mxRectangle width="59" height="42" as="alternateBounds" />
          </mxGeometry>
        </mxCell>
        <mxCell id="ruvOZ1PuX7WifHgUErlT-26" style="edgeStyle=none;rounded=0;orthogonalLoop=1;jettySize=auto;html=1;entryX=1;entryY=0;entryDx=0;entryDy=0;" edge="1" parent="1" source="ruvOZ1PuX7WifHgUErlT-18" target="ruvOZ1PuX7WifHgUErlT-19">
          <mxGeometry relative="1" as="geometry" />
        </mxCell>
        <mxCell id="ruvOZ1PuX7WifHgUErlT-27" style="edgeStyle=none;rounded=0;orthogonalLoop=1;jettySize=auto;html=1;entryX=0;entryY=0;entryDx=0;entryDy=0;" edge="1" parent="1" source="ruvOZ1PuX7WifHgUErlT-18" target="ruvOZ1PuX7WifHgUErlT-23">
          <mxGeometry relative="1" as="geometry" />
        </mxCell>
        <mxCell id="ruvOZ1PuX7WifHgUErlT-18" value="" style="ellipse;whiteSpace=wrap;html=1;aspect=fixed;" vertex="1" parent="1">
          <mxGeometry x="258" y="226" width="48" height="48" as="geometry" />
        </mxCell>
        <mxCell id="ruvOZ1PuX7WifHgUErlT-28" style="edgeStyle=none;rounded=0;orthogonalLoop=1;jettySize=auto;html=1;entryX=0.5;entryY=0;entryDx=0;entryDy=0;" edge="1" parent="1" source="ruvOZ1PuX7WifHgUErlT-19" target="ruvOZ1PuX7WifHgUErlT-21">
          <mxGeometry relative="1" as="geometry" />
        </mxCell>
        <mxCell id="ruvOZ1PuX7WifHgUErlT-29" style="edgeStyle=none;rounded=0;orthogonalLoop=1;jettySize=auto;html=1;entryX=0.5;entryY=0;entryDx=0;entryDy=0;" edge="1" parent="1" source="ruvOZ1PuX7WifHgUErlT-19" target="ruvOZ1PuX7WifHgUErlT-22">
          <mxGeometry relative="1" as="geometry" />
        </mxCell>
        <mxCell id="ruvOZ1PuX7WifHgUErlT-19" value="" style="ellipse;whiteSpace=wrap;html=1;aspect=fixed;" vertex="1" parent="1">
          <mxGeometry x="133" y="347" width="48" height="48" as="geometry" />
        </mxCell>
        <mxCell id="ruvOZ1PuX7WifHgUErlT-20" value="" style="ellipse;whiteSpace=wrap;html=1;aspect=fixed;" vertex="1" parent="1">
          <mxGeometry x="335" y="462" width="48" height="48" as="geometry" />
        </mxCell>
        <mxCell id="ruvOZ1PuX7WifHgUErlT-21" value="" style="ellipse;whiteSpace=wrap;html=1;aspect=fixed;" vertex="1" parent="1">
          <mxGeometry x="53" y="458" width="48" height="48" as="geometry" />
        </mxCell>
        <mxCell id="ruvOZ1PuX7WifHgUErlT-22" value="" style="ellipse;whiteSpace=wrap;html=1;aspect=fixed;" vertex="1" parent="1">
          <mxGeometry x="170" y="458" width="48" height="48" as="geometry" />
        </mxCell>
        <mxCell id="ruvOZ1PuX7WifHgUErlT-30" style="edgeStyle=none;rounded=0;orthogonalLoop=1;jettySize=auto;html=1;entryX=0.5;entryY=0;entryDx=0;entryDy=0;" edge="1" parent="1" source="ruvOZ1PuX7WifHgUErlT-23" target="ruvOZ1PuX7WifHgUErlT-20">
          <mxGeometry relative="1" as="geometry" />
        </mxCell>
        <mxCell id="ruvOZ1PuX7WifHgUErlT-31" style="edgeStyle=none;rounded=0;orthogonalLoop=1;jettySize=auto;html=1;entryX=0.5;entryY=0;entryDx=0;entryDy=0;" edge="1" parent="1" source="ruvOZ1PuX7WifHgUErlT-23" target="ruvOZ1PuX7WifHgUErlT-24">
          <mxGeometry relative="1" as="geometry" />
        </mxCell>
        <mxCell id="ruvOZ1PuX7WifHgUErlT-23" value="" style="ellipse;whiteSpace=wrap;html=1;aspect=fixed;" vertex="1" parent="1">
          <mxGeometry x="347" y="344" width="48" height="48" as="geometry" />
        </mxCell>
        <mxCell id="ruvOZ1PuX7WifHgUErlT-24" value="" style="ellipse;whiteSpace=wrap;html=1;aspect=fixed;" vertex="1" parent="1">
          <mxGeometry x="450" y="462" width="48" height="48" as="geometry" />
        </mxCell>
      </root>
    </mxGraphModel>
  </diagram>
</mxfile>
